<svg width="1920" height="1080" viewBox="0 0 1920 1080" fill="none" xmlns="http://www.w3.org/2000/svg">
  <defs>
    <linearGradient id="bg" x1="160" y1="80" x2="1760" y2="980" gradientUnits="userSpaceOnUse">
      <stop offset="0" stop-color="#171009" />
      <stop offset="0.56" stop-color="#2B1A0A" />
      <stop offset="1" stop-color="#0E0A05" />
    </linearGradient>
    <radialGradient id="goldGlow" cx="0" cy="0" r="1" gradientUnits="userSpaceOnUse" gradientTransform="translate(1490 190) rotate(118) scale(480 390)">
      <stop offset="0" stop-color="#F5CB7A" stop-opacity="0.88" />
      <stop offset="0.5" stop-color="#C8852B" stop-opacity="0.42" />
      <stop offset="1" stop-color="#C8852B" stop-opacity="0" />
    </radialGradient>
    <radialGradient id="emeraldGlow" cx="0" cy="0" r="1" gradientUnits="userSpaceOnUse" gradientTransform="translate(360 920) rotate(-40) scale(520 420)">
      <stop offset="0" stop-color="#3F7A60" stop-opacity="0.46" />
      <stop offset="1" stop-color="#3F7A60" stop-opacity="0" />
    </radialGradient>
    <linearGradient id="panel" x1="0" y1="0" x2="0" y2="1">
      <stop offset="0" stop-color="#F8DFB0" stop-opacity="0.28" />
      <stop offset="1" stop-color="#F8DFB0" stop-opacity="0.02" />
    </linearGradient>
    <filter id="blur24" x="-24" y="-24" width="1968" height="1128" filterUnits="userSpaceOnUse" color-interpolation-filters="sRGB">
      <feGaussianBlur stdDeviation="12" />
    </filter>
  </defs>

  <rect width="1920" height="1080" fill="url(#bg)" />
  <rect width="1920" height="1080" fill="url(#goldGlow)" />
  <rect width="1920" height="1080" fill="url(#emeraldGlow)" />

  <g opacity="0.58">
    <path d="M130 730L760 380L1350 540L1770 330" stroke="#F3D39B" stroke-opacity="0.24" stroke-width="2" />
    <path d="M130 790L760 450L1350 610L1770 410" stroke="#F3D39B" stroke-opacity="0.18" stroke-width="1.5" />
    <path d="M130 850L760 520L1350 680L1770 490" stroke="#F3D39B" stroke-opacity="0.12" stroke-width="1" />
  </g>

  <g opacity="0.6">
    <circle cx="1470" cy="260" r="170" fill="#F1C675" fill-opacity="0.2" />
    <circle cx="1570" cy="200" r="90" fill="#F7DEAE" fill-opacity="0.22" />
    <circle cx="1320" cy="300" r="72" fill="#D6A457" fill-opacity="0.18" />
  </g>

  <g filter="url(#blur24)" opacity="0.32">
    <circle cx="1640" cy="126" r="52" fill="#FFF2D0" />
    <circle cx="930" cy="206" r="32" fill="#E9C580" />
    <circle cx="680" cy="780" r="46" fill="#E1BE76" />
    <circle cx="360" cy="920" r="58" fill="#7DB091" />
  </g>

  <g opacity="0.42">
    <rect x="1100" y="170" width="580" height="340" rx="22" fill="url(#panel)" />
    <rect x="1128" y="202" width="524" height="8" rx="4" fill="#F5D39A" fill-opacity="0.58" />
    <rect x="1128" y="236" width="300" height="8" rx="4" fill="#F5D39A" fill-opacity="0.32" />
    <rect x="1128" y="260" width="380" height="8" rx="4" fill="#F5D39A" fill-opacity="0.26" />
    <rect x="1128" y="318" width="224" height="124" rx="16" fill="#1E150C" fill-opacity="0.56" />
    <rect x="1368" y="318" width="284" height="124" rx="16" fill="#1E150C" fill-opacity="0.56" />
  </g>
</svg>
